<svg xmlns="http://www.w3.org/2000/svg" xmlns:xlink="http://www.w3.org/1999/xlink" version="1.2" width="210.00mm" height="297.00mm" viewBox="0 0 119.5016 169.0094">
<style type="text/css">
<![CDATA[
tspan { white-space: pre; }
]]>
</style>
<!-- Page: 3/3 -->
<g transform="translate(112.4111, 4.4781)">
<text font-family="serif" font-size="2.2001" text-anchor="start" fill="currentColor">
<tspan>3</tspan>
</text>
</g>
<g transform="translate(5.6906, 13.8800)">
<line stroke-linejoin="round" stroke-linecap="round" stroke-width="0.1000" stroke="currentColor" x1="0.0500" y1="0" x2="108.0705" y2="0"/>
</g>
<g transform="translate(5.6906, 12.3800)">
<line stroke-linejoin="round" stroke-linecap="round" stroke-width="0.1000" stroke="currentColor" x1="0.0500" y1="0" x2="108.0705" y2="0"/>
</g>
<g transform="translate(5.6906, 10.8800)">
<line stroke-linejoin="round" stroke-linecap="round" stroke-width="0.1000" stroke="currentColor" x1="0.0500" y1="0" x2="108.0705" y2="0"/>
</g>
<g transform="translate(5.6906, 9.3800)">
<line stroke-linejoin="round" stroke-linecap="round" stroke-width="0.1000" stroke="currentColor" x1="0.0500" y1="0" x2="108.0705" y2="0"/>
</g>
<g transform="translate(5.6906, 7.8800)">
<line stroke-linejoin="round" stroke-linecap="round" stroke-width="0.1000" stroke="currentColor" x1="0.0500" y1="0" x2="108.0705" y2="0"/>
</g>
<g transform="translate(61.7673, 10.8800)">
<rect x="0.0000" y="-3.0000" width="0.1900" height="6.0000" ry="0.0000" fill="currentColor"/>
</g>
<g transform="translate(36.1144, 10.8800)">
<rect x="0.0000" y="-3.0000" width="0.1900" height="6.0000" ry="0.0000" fill="currentColor"/>
</g>
<g transform="translate(87.4202, 10.8800)">
<rect x="0.0000" y="-3.0000" width="0.1900" height="6.0000" ry="0.0000" fill="currentColor"/>
</g>
<g transform="translate(113.2110, 10.8800)">
<rect x="0.0000" y="-3.0000" width="0.6000" height="6.0000" ry="0.0000" fill="currentColor"/>
</g>
<g transform="translate(112.7210, 10.8800)">
<rect x="0.0000" y="-3.0000" width="0.1900" height="6.0000" ry="0.0000" fill="currentColor"/>
</g>
<g color="rgb(100.0000%, 100.0000%, 100.0000%)">
<g transform="translate(73.0771, 13.8800)">
<rect x="0.1229" y="-0.6480" width="1.2292" height="1.2959" ry="0.0000" fill="currentColor"/>
</g>
</g>
<g transform="translate(73.2000, 14.5279)">
<text font-family="serif" font-weight="bold" font-size="1.7461" text-anchor="start" fill="currentColor">
<tspan>1</tspan>
</text>
</g>
<g transform="translate(73.8146, 10.8800)">
<rect x="-0.0650" y="-1.6900" width="0.1300" height="3.8152" ry="0.0400" fill="currentColor"/>
</g>
<g color="rgb(100.0000%, 100.0000%, 100.0000%)">
<g transform="translate(76.5041, 13.8800)">
<rect x="0.1229" y="-0.6480" width="1.2292" height="1.2959" ry="0.0000" fill="currentColor"/>
</g>
</g>
<g transform="translate(76.6270, 14.5279)">
<text font-family="serif" font-weight="bold" font-size="1.7461" text-anchor="start" fill="currentColor">
<tspan>1</tspan>
</text>
</g>
<g transform="translate(77.2416, 10.8800)">
<rect x="-0.0650" y="-1.6900" width="0.1300" height="3.8152" ry="0.0400" fill="currentColor"/>
</g>
<g color="rgb(100.0000%, 100.0000%, 100.0000%)">
<g transform="translate(79.9310, 13.8800)">
<rect x="0.1229" y="-0.6603" width="1.2292" height="1.3207" ry="0.0000" fill="currentColor"/>
</g>
</g>
<g transform="translate(80.0539, 14.5156)">
<text font-family="serif" font-weight="bold" font-size="1.7461" text-anchor="start" fill="currentColor">
<tspan>0</tspan>
</text>
</g>
<g transform="translate(80.6685, 10.8800)">
<rect x="-0.0650" y="-1.6900" width="0.1300" height="3.7986" ry="0.0400" fill="currentColor"/>
</g>
<g transform="translate(83.3579, 10.8800)">
<path transform="scale(0.0040, -0.0040)" d="M-23 -116c0 28 11 42 40 42c33 0 78 -13 119 -31l-132 158c-7 9 -10 17 -10 25c0 34 50 66 87 99c25 22 37 52 37 83c0 24 -8 49 -25 69l-35 42c-3 3 -4 7 -4 10c0 9 9 15 17 15c4 0 8 -1 11 -5l151 -180c7 -9 10 -17 10 -25c0 -34 -50 -66 -87 -99
c-25 -22 -37 -52 -37 -83c0 -24 7 -49 24 -69l84 -99c3 -3 4 -7 4 -10c0 -9 -8 -16 -16 -16c-4 0 -9 2 -12 6c-18 21 -63 38 -97 38c-41 0 -53 -26 -53 -67c0 -35 11 -74 28 -94c7 -8 -5 -19 -12 -11c-45 54 -92 148 -92 202z" fill="currentColor"/>
</g>
<g color="rgb(100.0000%, 100.0000%, 100.0000%)">
<g transform="translate(88.4492, 13.8800)">
<rect x="0.1229" y="-0.6480" width="1.2292" height="1.2959" ry="0.0000" fill="currentColor"/>
</g>
</g>
<g transform="translate(88.5722, 14.5279)">
<text font-family="serif" font-weight="bold" font-size="1.7461" text-anchor="start" fill="currentColor">
<tspan>1</tspan>
</text>
</g>
<g transform="translate(89.1867, 10.8800)">
<rect x="-0.0650" y="-1.6900" width="0.1300" height="3.8152" ry="0.0400" fill="currentColor"/>
</g>
<g color="rgb(100.0000%, 100.0000%, 100.0000%)">
<g transform="translate(62.7963, 13.8800)">
<rect x="0.1229" y="-0.6480" width="1.2292" height="1.2959" ry="0.0000" fill="currentColor"/>
</g>
</g>
<g transform="translate(62.9193, 14.5279)">
<text font-family="serif" font-weight="bold" font-size="1.7461" text-anchor="start" fill="currentColor">
<tspan>1</tspan>
</text>
</g>
<g transform="translate(63.5338, 10.8800)">
<rect x="-0.0650" y="-1.6900" width="0.1300" height="3.8152" ry="0.0400" fill="currentColor"/>
</g>
<g transform="translate(12.1630, 9.1900)">
<polygon stroke-linejoin="round" stroke-linecap="round" stroke-width="0.0800" fill="currentColor" stroke="currentColor" points="10.3708 -0.2000 10.3708 0.2000 0.0400 0.2000 0.0400 -0.2000"/>
</g>
<g color="rgb(100.0000%, 100.0000%, 100.0000%)">
<g transform="translate(66.2233, 13.8800)">
<rect x="0.1229" y="-0.6480" width="1.2292" height="1.2959" ry="0.0000" fill="currentColor"/>
</g>
</g>
<g transform="translate(66.3462, 14.5279)">
<text font-family="serif" font-weight="bold" font-size="1.7461" text-anchor="start" fill="currentColor">
<tspan>1</tspan>
</text>
</g>
<g transform="translate(66.9608, 10.8800)">
<rect x="-0.0650" y="-1.6900" width="0.1300" height="3.8152" ry="0.0400" fill="currentColor"/>
</g>
<g color="rgb(100.0000%, 100.0000%, 100.0000%)">
<g transform="translate(69.6502, 13.8800)">
<rect x="0.1229" y="-0.6480" width="1.2292" height="1.2959" ry="0.0000" fill="currentColor"/>
</g>
</g>
<g transform="translate(69.7731, 14.5279)">
<text font-family="serif" font-weight="bold" font-size="1.7461" text-anchor="start" fill="currentColor">
<tspan>1</tspan>
</text>
</g>
<g transform="translate(70.3877, 10.8800)">
<rect x="-0.0650" y="-1.6900" width="0.1300" height="3.8152" ry="0.0400" fill="currentColor"/>
</g>
<g color="rgb(100.0000%, 100.0000%, 100.0000%)">
<g transform="translate(102.1570, 13.8800)">
<rect x="0.1229" y="-0.6480" width="1.2292" height="1.2959" ry="0.0000" fill="currentColor"/>
</g>
</g>
<g transform="translate(102.2799, 14.5279)">
<text font-family="serif" font-weight="bold" font-size="1.7461" text-anchor="start" fill="currentColor">
<tspan>1</tspan>
</text>
</g>
<g transform="translate(102.8945, 10.8800)">
<rect x="-0.0650" y="-2.2500" width="0.1300" height="4.3752" ry="0.0400" fill="currentColor"/>
</g>
<g transform="translate(102.9595, 8.6700)">
<path transform="scale(0.0040, -0.0040)" d="M0 0v-250h-16v250h16zM0 0c0 -197 207 -336 207 -533c0 -71 -15 -141 -41 -207c-5 -8 -13 -12 -20 -12c-13 0 -26 11 -23 27c26 61 42 126 42 192c0 103 -94 208 -165 283v250z" fill="currentColor"/>
</g>
<g transform="translate(105.5839, 10.8800)">
<path transform="scale(0.0040, -0.0040)" d="M72 -250l117 326c-34 -12 -69 -22 -105 -22c-46 0 -87 33 -87 79c0 40 33 72 73 72c25 0 48 -15 56 -39c10 -28 6 -59 35 -59c16 0 54 48 61 63c6 12 23 12 28 0l-123 -420c-8 -7 -17 -10 -27 -10s-20 3 -28 10z" fill="currentColor"/>
</g>
<g transform="translate(108.6587, 10.8800)">
<path transform="scale(0.0040, -0.0040)" d="M-23 -116c0 28 11 42 40 42c33 0 78 -13 119 -31l-132 158c-7 9 -10 17 -10 25c0 34 50 66 87 99c25 22 37 52 37 83c0 24 -8 49 -25 69l-35 42c-3 3 -4 7 -4 10c0 9 9 15 17 15c4 0 8 -1 11 -5l151 -180c7 -9 10 -17 10 -25c0 -34 -50 -66 -87 -99
c-25 -22 -37 -52 -37 -83c0 -24 7 -49 24 -69l84 -99c3 -3 4 -7 4 -10c0 -9 -8 -16 -16 -16c-4 0 -9 2 -12 6c-18 21 -63 38 -97 38c-41 0 -53 -26 -53 -67c0 -35 11 -74 28 -94c7 -8 -5 -19 -12 -11c-45 54 -92 148 -92 202z" fill="currentColor"/>
</g>
<g transform="translate(37.8159, 9.1900)">
<polygon stroke-linejoin="round" stroke-linecap="round" stroke-width="0.0800" fill="currentColor" stroke="currentColor" points="10.3708 -0.2000 10.3708 0.2000 0.0400 0.2000 0.0400 -0.2000"/>
</g>
<g transform="translate(89.1217, 9.1900)">
<polygon stroke-linejoin="round" stroke-linecap="round" stroke-width="0.0800" fill="currentColor" stroke="currentColor" points="10.3708 -0.2000 10.3708 0.2000 0.0400 0.2000 0.0400 -0.2000"/>
</g>
<g transform="translate(77.1766, 9.1900)">
<polygon stroke-linejoin="round" stroke-linecap="round" stroke-width="0.0800" fill="currentColor" stroke="currentColor" points="3.5169 -0.2000 3.5169 0.2000 0.0400 0.2000 0.0400 -0.2000"/>
</g>
<g transform="translate(63.4688, 9.1900)">
<polygon stroke-linejoin="round" stroke-linecap="round" stroke-width="0.0800" fill="currentColor" stroke="currentColor" points="10.3708 -0.2000 10.3708 0.2000 0.0400 0.2000 0.0400 -0.2000"/>
</g>
<g transform="translate(25.8708, 9.1900)">
<polygon stroke-linejoin="round" stroke-linecap="round" stroke-width="0.0800" fill="currentColor" stroke="currentColor" points="3.5169 -0.2000 3.5169 0.2000 0.0400 0.2000 0.0400 -0.2000"/>
</g>
<g color="rgb(100.0000%, 100.0000%, 100.0000%)">
<g transform="translate(91.8762, 13.8800)">
<rect x="0.1229" y="-0.6480" width="1.2292" height="1.2959" ry="0.0000" fill="currentColor"/>
</g>
</g>
<g transform="translate(91.9991, 14.5279)">
<text font-family="serif" font-weight="bold" font-size="1.7461" text-anchor="start" fill="currentColor">
<tspan>1</tspan>
</text>
</g>
<g transform="translate(92.6137, 10.8800)">
<rect x="-0.0650" y="-1.6900" width="0.1300" height="3.8152" ry="0.0400" fill="currentColor"/>
</g>
<g transform="translate(51.5237, 9.1900)">
<polygon stroke-linejoin="round" stroke-linecap="round" stroke-width="0.0800" fill="currentColor" stroke="currentColor" points="3.5169 -0.2000 3.5169 0.2000 0.0400 0.2000 0.0400 -0.2000"/>
</g>
<g color="rgb(100.0000%, 100.0000%, 100.0000%)">
<g transform="translate(95.3031, 13.8800)">
<rect x="0.1229" y="-0.6480" width="1.2292" height="1.2959" ry="0.0000" fill="currentColor"/>
</g>
</g>
<g transform="translate(95.4260, 14.5279)">
<text font-family="serif" font-weight="bold" font-size="1.7461" text-anchor="start" fill="currentColor">
<tspan>1</tspan>
</text>
</g>
<g transform="translate(96.0406, 10.8800)">
<rect x="-0.0650" y="-1.6900" width="0.1300" height="3.8152" ry="0.0400" fill="currentColor"/>
</g>
<g color="rgb(100.0000%, 100.0000%, 100.0000%)">
<g transform="translate(98.7300, 13.8800)">
<rect x="0.1229" y="-0.6480" width="1.2292" height="1.2959" ry="0.0000" fill="currentColor"/>
</g>
</g>
<g transform="translate(98.8529, 14.5279)">
<text font-family="serif" font-weight="bold" font-size="1.7461" text-anchor="start" fill="currentColor">
<tspan>1</tspan>
</text>
</g>
<g transform="translate(99.4675, 10.8800)">
<rect x="-0.0650" y="-1.6900" width="0.1300" height="3.8152" ry="0.0400" fill="currentColor"/>
</g>
<g color="rgb(100.0000%, 100.0000%, 100.0000%)">
<g transform="translate(28.6252, 13.8800)">
<rect x="0.1229" y="-0.6603" width="1.2292" height="1.3207" ry="0.0000" fill="currentColor"/>
</g>
</g>
<g transform="translate(28.7481, 14.5156)">
<text font-family="serif" font-weight="bold" font-size="1.7461" text-anchor="start" fill="currentColor">
<tspan>0</tspan>
</text>
</g>
<g color="rgb(100.0000%, 100.0000%, 100.0000%)">
<g transform="translate(21.7713, 13.8800)">
<rect x="0.1229" y="-0.6480" width="1.2292" height="1.2959" ry="0.0000" fill="currentColor"/>
</g>
</g>
<g transform="translate(21.8943, 14.5279)">
<text font-family="serif" font-weight="bold" font-size="1.7461" text-anchor="start" fill="currentColor">
<tspan>1</tspan>
</text>
</g>
<g transform="translate(22.5088, 10.8800)">
<rect x="-0.0650" y="-1.6900" width="0.1300" height="3.8152" ry="0.0400" fill="currentColor"/>
</g>
<g color="rgb(100.0000%, 100.0000%, 100.0000%)">
<g transform="translate(25.1983, 13.8800)">
<rect x="0.1229" y="-0.6480" width="1.2292" height="1.2959" ry="0.0000" fill="currentColor"/>
</g>
</g>
<g transform="translate(25.3212, 14.5279)">
<text font-family="serif" font-weight="bold" font-size="1.7461" text-anchor="start" fill="currentColor">
<tspan>1</tspan>
</text>
</g>
<g transform="translate(25.9358, 10.8800)">
<rect x="-0.0650" y="-1.6900" width="0.1300" height="3.8152" ry="0.0400" fill="currentColor"/>
</g>
<g transform="translate(29.3627, 10.8800)">
<rect x="-0.0650" y="-1.6900" width="0.1300" height="3.7986" ry="0.0400" fill="currentColor"/>
</g>
<g transform="translate(32.0521, 10.8800)">
<path transform="scale(0.0040, -0.0040)" d="M-23 -116c0 28 11 42 40 42c33 0 78 -13 119 -31l-132 158c-7 9 -10 17 -10 25c0 34 50 66 87 99c25 22 37 52 37 83c0 24 -8 49 -25 69l-35 42c-3 3 -4 7 -4 10c0 9 9 15 17 15c4 0 8 -1 11 -5l151 -180c7 -9 10 -17 10 -25c0 -34 -50 -66 -87 -99
c-25 -22 -37 -52 -37 -83c0 -24 7 -49 24 -69l84 -99c3 -3 4 -7 4 -10c0 -9 -8 -16 -16 -16c-4 0 -9 2 -12 6c-18 21 -63 38 -97 38c-41 0 -53 -26 -53 -67c0 -35 11 -74 28 -94c7 -8 -5 -19 -12 -11c-45 54 -92 148 -92 202z" fill="currentColor"/>
</g>
<g color="rgb(100.0000%, 100.0000%, 100.0000%)">
<g transform="translate(37.1434, 13.8800)">
<rect x="0.1229" y="-0.6480" width="1.2292" height="1.2959" ry="0.0000" fill="currentColor"/>
</g>
</g>
<g transform="translate(37.2664, 14.5279)">
<text font-family="serif" font-weight="bold" font-size="1.7461" text-anchor="start" fill="currentColor">
<tspan>1</tspan>
</text>
</g>
<g transform="translate(37.8809, 10.8800)">
<rect x="-0.0650" y="-1.6900" width="0.1300" height="3.8152" ry="0.0400" fill="currentColor"/>
</g>
<g transform="translate(12.2280, 10.8800)">
<rect x="-0.0650" y="-1.6900" width="0.1300" height="3.8152" ry="0.0400" fill="currentColor"/>
</g>
<g transform="translate(6.5930, 9.8391)">
<text font-family="sans-serif" font-weight="bold" font-size="2.3312" text-anchor="start" fill="currentColor">
<tspan>T</tspan>
</text>
</g>
<g transform="translate(6.4906, 11.7297)">
<text font-family="sans-serif" font-weight="bold" font-size="2.3312" text-anchor="start" fill="currentColor">
<tspan>A</tspan>
</text>
</g>
<g transform="translate(6.5076, 13.6203)">
<text font-family="sans-serif" font-weight="bold" font-size="2.3312" text-anchor="start" fill="currentColor">
<tspan>B</tspan>
</text>
</g>
<g transform="translate(3.4371, 6.8052)">
<text font-family="serif" font-size="1.7461" text-anchor="start" fill="currentColor">
<tspan>93</tspan>
</text>
</g>
<g color="rgb(100.0000%, 100.0000%, 100.0000%)">
<g transform="translate(11.4906, 13.8800)">
<rect x="0.1229" y="-0.6480" width="1.2292" height="1.2959" ry="0.0000" fill="currentColor"/>
</g>
</g>
<g transform="translate(11.6135, 14.5279)">
<text font-family="serif" font-weight="bold" font-size="1.7461" text-anchor="start" fill="currentColor">
<tspan>1</tspan>
</text>
</g>
<g color="rgb(100.0000%, 100.0000%, 100.0000%)">
<g transform="translate(14.9175, 13.8800)">
<rect x="0.1229" y="-0.6480" width="1.2292" height="1.2959" ry="0.0000" fill="currentColor"/>
</g>
</g>
<g transform="translate(15.0404, 14.5279)">
<text font-family="serif" font-weight="bold" font-size="1.7461" text-anchor="start" fill="currentColor">
<tspan>1</tspan>
</text>
</g>
<g transform="translate(15.6550, 10.8800)">
<rect x="-0.0650" y="-1.6900" width="0.1300" height="3.8152" ry="0.0400" fill="currentColor"/>
</g>
<g color="rgb(100.0000%, 100.0000%, 100.0000%)">
<g transform="translate(18.3444, 13.8800)">
<rect x="0.1229" y="-0.6480" width="1.2292" height="1.2959" ry="0.0000" fill="currentColor"/>
</g>
</g>
<g transform="translate(18.4673, 14.5279)">
<text font-family="serif" font-weight="bold" font-size="1.7461" text-anchor="start" fill="currentColor">
<tspan>1</tspan>
</text>
</g>
<g transform="translate(19.0819, 10.8800)">
<rect x="-0.0650" y="-1.6900" width="0.1300" height="3.8152" ry="0.0400" fill="currentColor"/>
</g>
<g color="rgb(100.0000%, 100.0000%, 100.0000%)">
<g transform="translate(50.8512, 13.8800)">
<rect x="0.1229" y="-0.6480" width="1.2292" height="1.2959" ry="0.0000" fill="currentColor"/>
</g>
</g>
<g transform="translate(50.9741, 14.5279)">
<text font-family="serif" font-weight="bold" font-size="1.7461" text-anchor="start" fill="currentColor">
<tspan>1</tspan>
</text>
</g>
<g color="rgb(100.0000%, 100.0000%, 100.0000%)">
<g transform="translate(43.9973, 13.8800)">
<rect x="0.1229" y="-0.6480" width="1.2292" height="1.2959" ry="0.0000" fill="currentColor"/>
</g>
</g>
<g transform="translate(44.1202, 14.5279)">
<text font-family="serif" font-weight="bold" font-size="1.7461" text-anchor="start" fill="currentColor">
<tspan>1</tspan>
</text>
</g>
<g transform="translate(44.7348, 10.8800)">
<rect x="-0.0650" y="-1.6900" width="0.1300" height="3.8152" ry="0.0400" fill="currentColor"/>
</g>
<g color="rgb(100.0000%, 100.0000%, 100.0000%)">
<g transform="translate(47.4242, 13.8800)">
<rect x="0.1229" y="-0.6480" width="1.2292" height="1.2959" ry="0.0000" fill="currentColor"/>
</g>
</g>
<g transform="translate(47.5472, 14.5279)">
<text font-family="serif" font-weight="bold" font-size="1.7461" text-anchor="start" fill="currentColor">
<tspan>1</tspan>
</text>
</g>
<g transform="translate(48.1617, 10.8800)">
<rect x="-0.0650" y="-1.6900" width="0.1300" height="3.8152" ry="0.0400" fill="currentColor"/>
</g>
<g transform="translate(51.5887, 10.8800)">
<rect x="-0.0650" y="-1.6900" width="0.1300" height="3.8152" ry="0.0400" fill="currentColor"/>
</g>
<g color="rgb(100.0000%, 100.0000%, 100.0000%)">
<g transform="translate(54.2781, 13.8800)">
<rect x="0.1229" y="-0.6603" width="1.2292" height="1.3207" ry="0.0000" fill="currentColor"/>
</g>
</g>
<g transform="translate(54.4010, 14.5156)">
<text font-family="serif" font-weight="bold" font-size="1.7461" text-anchor="start" fill="currentColor">
<tspan>0</tspan>
</text>
</g>
<g transform="translate(55.0156, 10.8800)">
<rect x="-0.0650" y="-1.6900" width="0.1300" height="3.7986" ry="0.0400" fill="currentColor"/>
</g>
<g transform="translate(57.7050, 10.8800)">
<path transform="scale(0.0040, -0.0040)" d="M-23 -116c0 28 11 42 40 42c33 0 78 -13 119 -31l-132 158c-7 9 -10 17 -10 25c0 34 50 66 87 99c25 22 37 52 37 83c0 24 -8 49 -25 69l-35 42c-3 3 -4 7 -4 10c0 9 9 15 17 15c4 0 8 -1 11 -5l151 -180c7 -9 10 -17 10 -25c0 -34 -50 -66 -87 -99
c-25 -22 -37 -52 -37 -83c0 -24 7 -49 24 -69l84 -99c3 -3 4 -7 4 -10c0 -9 -8 -16 -16 -16c-4 0 -9 2 -12 6c-18 21 -63 38 -97 38c-41 0 -53 -26 -53 -67c0 -35 11 -74 28 -94c7 -8 -5 -19 -12 -11c-45 54 -92 148 -92 202z" fill="currentColor"/>
</g>
<g color="rgb(100.0000%, 100.0000%, 100.0000%)">
<g transform="translate(40.5704, 13.8800)">
<rect x="0.1229" y="-0.6480" width="1.2292" height="1.2959" ry="0.0000" fill="currentColor"/>
</g>
</g>
<g transform="translate(40.6933, 14.5279)">
<text font-family="serif" font-weight="bold" font-size="1.7461" text-anchor="start" fill="currentColor">
<tspan>1</tspan>
</text>
</g>
<g transform="translate(41.3079, 10.8800)">
<rect x="-0.0650" y="-1.6900" width="0.1300" height="3.8152" ry="0.0400" fill="currentColor"/>
</g>
</svg>
